Chivo-Light Italic.ufo
<glyph name="dollar" format="1">
  <advance width="546"/>
  <unicode hex="0024"/>
  <outline>
    <contour>
      <point x="214" y="-66" type="line"/>
      <point x="266" y="-66" type="line"/>
      <point x="266" y="19" type="line"/>
      <point x="397" y="21"/>
      <point x="526" y="77"/>
      <point x="526" y="230" type="curve" smooth="yes"/>
      <point x="526" y="434"/>
      <point x="148" y="348"/>
      <point x="148" y="501" type="curve" smooth="yes"/>
      <point x="148" y="595"/>
      <point x="239" y="625"/>
      <point x="338" y="625" type="curve" smooth="yes"/>
      <point x="428" y="625"/>
      <point x="499" y="596"/>
      <point x="499" y="530" type="curve" smooth="yes"/>
      <point x="499" y="525"/>
      <point x="499" y="520"/>
      <point x="495" y="494" type="curve"/>
      <point x="545" y="494" type="line"/>
      <point x="548" y="515"/>
      <point x="549" y="524"/>
      <point x="549" y="532" type="curve" smooth="yes"/>
      <point x="549" y="629"/>
      <point x="466" y="669"/>
      <point x="358" y="672" type="curve"/>
      <point x="381" y="762" type="line"/>
      <point x="328" y="762" type="line"/>
      <point x="328" y="672" type="line"/>
      <point x="205" y="668"/>
      <point x="94" y="614"/>
      <point x="94" y="491" type="curve" smooth="yes"/>
      <point x="94" y="291"/>
      <point x="472" y="381"/>
      <point x="472" y="217" type="curve" smooth="yes"/>
      <point x="472" y="98"/>
      <point x="366" y="69"/>
      <point x="259" y="69" type="curve" smooth="yes"/>
      <point x="160" y="69"/>
      <point x="83" y="93"/>
      <point x="83" y="172" type="curve" smooth="yes"/>
      <point x="83" y="185"/>
      <point x="87" y="212"/>
      <point x="89" y="218" type="curve"/>
      <point x="38" y="218" type="line"/>
      <point x="35" y="210"/>
      <point x="33" y="186"/>
      <point x="33" y="171" type="curve" smooth="yes"/>
      <point x="33" y="63"/>
      <point x="121" y="23"/>
      <point x="235" y="19" type="curve"/>
    </contour>
  </outline>
</glyph>
<glyph name="slash" format="1">
  <advance width="489"/>
  <unicode hex="002F"/>
  <outline>
    <contour>
      <point x="624" y="686" type="line"/>
      <point x="565" y="686" type="line"/>
      <point x="-45" y="-171" type="line"/>
      <point x="15" y="-171" type="line"/>
    </contour>
  </outline>
</glyph>
<glyph name="two" format="1">
  <advance width="615"/>
  <unicode hex="0032"/>
  <outline>
    <contour>
      <point x="31" y="0" type="line"/>
      <point x="485" y="0" type="line"/>
      <point x="491" y="48" type="line"/>
      <point x="96" y="48" type="line"/>
      <point x="104" y="91"/>
      <point x="134" y="123"/>
      <point x="169" y="144" type="curve" smooth="yes"/>
      <point x="400" y="281" type="line" smooth="yes"/>
      <point x="470" y="323"/>
      <point x="551" y="391"/>
      <point x="551" y="516" type="curve" smooth="yes"/>
      <point x="551" y="619"/>
      <point x="481" y="696"/>
      <point x="360" y="696" type="curve" smooth="yes"/>
      <point x="225" y="696"/>
      <point x="117" y="598"/>
      <point x="103" y="454" type="curve"/>
      <point x="157" y="454" type="line"/>
      <point x="170" y="561"/>
      <point x="242" y="648"/>
      <point x="354" y="648" type="curve" smooth="yes"/>
      <point x="446" y="648"/>
      <point x="496" y="592"/>
      <point x="496" y="512" type="curve" smooth="yes"/>
      <point x="496" y="419"/>
      <point x="438" y="360"/>
      <point x="382" y="327" type="curve" smooth="yes"/>
      <point x="161" y="196" type="line" smooth="yes"/>
      <point x="87" y="152"/>
      <point x="46" y="110"/>
      <point x="34" y="23" type="curve" smooth="yes"/>
    </contour>
  </outline>
</glyph>
<glyph name="seven" format="1">
  <advance width="615"/>
  <unicode hex="0037"/>
  <outline>
    <contour>
      <point x="594" y="686" type="line"/>
      <point x="123" y="686" type="line"/>
      <point x="115" y="632" type="line"/>
      <point x="504" y="632" type="line"/>
      <point x="368" y="491"/>
      <point x="194" y="263"/>
      <point x="157" y="0" type="curve"/>
      <point x="219" y="0" type="line"/>
      <point x="235" y="247"/>
      <point x="419" y="489"/>
      <point x="589" y="656" type="curve"/>
    </contour>
  </outline>
</glyph>
<glyph name="eight" format="1">
  <advance width="615"/>
  <unicode hex="0038"/>
  <outline>
    <contour>
      <point x="168" y="38"/>
      <point x="120" y="84"/>
      <point x="120" y="157" type="curve" smooth="yes"/>
      <point x="120" y="259"/>
      <point x="197" y="328"/>
      <point x="316" y="328" type="curve" smooth="yes"/>
      <point x="415" y="328"/>
      <point x="472" y="282"/>
      <point x="472" y="207" type="curve" smooth="yes"/>
      <point x="472" y="93"/>
      <point x="384" y="38"/>
      <point x="276" y="38" type="curve" smooth="yes"/>
    </contour>
    <contour>
      <point x="443" y="648"/>
      <point x="494" y="609"/>
      <point x="494" y="537" type="curve" smooth="yes"/>
      <point x="494" y="432"/>
      <point x="412" y="376"/>
      <point x="322" y="376" type="curve" smooth="yes"/>
      <point x="246" y="376"/>
      <point x="189" y="417"/>
      <point x="189" y="490" type="curve" smooth="yes"/>
      <point x="189" y="592"/>
      <point x="270" y="648"/>
      <point x="360" y="648" type="curve" smooth="yes"/>
    </contour>
    <contour>
      <point x="425" y="356" type="line"/>
      <point x="491" y="387"/>
      <point x="549" y="435"/>
      <point x="549" y="543" type="curve" smooth="yes"/>
      <point x="549" y="639"/>
      <point x="479" y="696"/>
      <point x="368" y="696" type="curve" smooth="yes"/>
      <point x="235" y="696"/>
      <point x="135" y="614"/>
      <point x="135" y="480" type="curve" smooth="yes"/>
      <point x="135" y="414"/>
      <point x="167" y="381"/>
      <point x="214" y="356" type="curve"/>
      <point x="214" y="352" type="line"/>
      <point x="131" y="326"/>
      <point x="65" y="262"/>
      <point x="65" y="150" type="curve" smooth="yes"/>
      <point x="65" y="44"/>
      <point x="146" y="-10"/>
      <point x="269" y="-10" type="curve" smooth="yes"/>
      <point x="430" y="-10"/>
      <point x="526" y="81"/>
      <point x="526" y="215" type="curve" smooth="yes"/>
      <point x="526" y="288"/>
      <point x="486" y="326"/>
      <point x="425" y="352" type="curve"/>
    </contour>
  </outline>
</glyph>
<glyph name="colon" format="1">
  <advance width="238"/>
  <unicode hex="003A"/>
  <outline>
    <contour>
      <point x="28" y="0" type="line"/>
      <point x="93" y="0" type="line"/>
      <point x="102" y="69" type="line"/>
      <point x="37" y="69" type="line"/>
    </contour>
    <contour>
      <point x="90" y="442" type="line"/>
      <point x="155" y="442" type="line"/>
      <point x="164" y="511" type="line"/>
      <point x="99" y="511" type="line"/>
    </contour>
  </outline>
</glyph>
<glyph name="at" format="1">
  <advance width="887"/>
  <unicode hex="0040"/>
  <outline>
    <contour>
      <point x="605" y="234" type="line" smooth="yes"/>
      <point x="587" y="117"/>
      <point x="494" y="65"/>
      <point x="410" y="65" type="curve" smooth="yes"/>
      <point x="342" y="65"/>
      <point x="307" y="87"/>
      <point x="307" y="137" type="curve" smooth="yes"/>
      <point x="307" y="259"/>
      <point x="429" y="267"/>
      <point x="610" y="267" type="curve"/>
    </contour>
    <contour>
      <point x="646" y="66"/>
      <point x="635" y="77"/>
      <point x="635" y="94" type="curve" smooth="yes"/>
      <point x="635" y="109"/>
      <point x="677" y="377"/>
      <point x="677" y="406" type="curve" smooth="yes"/>
      <point x="677" y="484"/>
      <point x="624" y="521"/>
      <point x="516" y="521" type="curve" smooth="yes"/>
      <point x="398" y="521"/>
      <point x="307" y="465"/>
      <point x="307" y="365" type="curve"/>
      <point x="355" y="365" type="line"/>
      <point x="357" y="380" type="line" smooth="yes"/>
      <point x="367" y="451"/>
      <point x="431" y="478"/>
      <point x="510" y="478" type="curve" smooth="yes"/>
      <point x="590" y="478"/>
      <point x="626" y="458"/>
      <point x="626" y="399" type="curve" smooth="yes"/>
      <point x="626" y="390"/>
      <point x="625" y="380"/>
      <point x="624" y="370" type="curve" smooth="yes"/>
      <point x="616" y="309" type="line"/>
      <point x="414" y="309"/>
      <point x="256" y="295"/>
      <point x="256" y="130" type="curve" smooth="yes"/>
      <point x="256" y="45"/>
      <point x="325" y="22"/>
      <point x="394" y="22" type="curve" smooth="yes"/>
      <point x="473" y="22"/>
      <point x="538" y="49"/>
      <point x="588" y="115" type="curve"/>
      <point x="587" y="106"/>
      <point x="586" y="97"/>
      <point x="586" y="90" type="curve" smooth="yes"/>
      <point x="586" y="49"/>
      <point x="604" y="23"/>
      <point x="666" y="23" type="curve" smooth="yes"/>
      <point x="794" y="23"/>
      <point x="879" y="175"/>
      <point x="879" y="398" type="curve" smooth="yes"/>
      <point x="879" y="609"/>
      <point x="739" y="697"/>
      <point x="544" y="697" type="curve" smooth="yes"/>
      <point x="223" y="697"/>
      <point x="60" y="466"/>
      <point x="60" y="162" type="curve" smooth="yes"/>
      <point x="60" y="-57"/>
      <point x="184" y="-153"/>
      <point x="390" y="-153" type="curve" smooth="yes"/>
      <point x="433" y="-153"/>
      <point x="514" y="-142"/>
      <point x="559" y="-126" type="curve"/>
      <point x="566" y="-74" type="line"/>
      <point x="528" y="-92"/>
      <point x="443" y="-106"/>
      <point x="397" y="-106" type="curve" smooth="yes"/>
      <point x="202" y="-106"/>
      <point x="110" y="-15"/>
      <point x="110" y="167" type="curve" smooth="yes"/>
      <point x="110" y="493"/>
      <point x="293" y="650"/>
      <point x="536" y="650" type="curve" smooth="yes"/>
      <point x="711" y="650"/>
      <point x="829" y="581"/>
      <point x="829" y="390" type="curve" smooth="yes"/>
      <point x="829" y="279"/>
      <point x="792" y="66"/>
      <point x="670" y="66" type="curve" smooth="yes"/>
    </contour>
  </outline>
</glyph>
<glyph name="A" format="1">
  <advance width="650"/>
  <unicode hex="0041"/>
  <outline>
    <contour>
      <point x="522" y="0" type="line"/>
      <point x="581" y="0" type="line"/>
      <point x="394" y="686" type="line"/>
      <point x="344" y="686" type="line"/>
      <point x="-36" y="0" type="line"/>
      <point x="19" y="0" type="line"/>
      <point x="113" y="170" type="line"/>
      <point x="475" y="170" type="line"/>
    </contour>
    <contour>
      <point x="354" y="612" type="line"/>
      <point x="358" y="612" type="line"/>
      <point x="462" y="219" type="line"/>
      <point x="140" y="219" type="line"/>
    </contour>
    <contour>
      <point x="578" y="10" type="move" name="ogonek"/>
    </contour>
    <contour>
      <point x="369" y="686" type="move" name="top"/>
    </contour>
  </outline>
</glyph>
<glyph name="E" format="1">
  <advance width="592"/>
  <unicode hex="0045"/>
  <outline>
    <contour>
      <point x="481" y="0" type="line"/>
      <point x="481" y="48" type="line"/>
      <point x="112" y="48" type="line"/>
      <point x="151" y="326" type="line"/>
      <point x="470" y="326" type="line"/>
      <point x="477" y="374" type="line"/>
      <point x="158" y="374" type="line"/>
      <point x="195" y="638" type="line"/>
      <point x="559" y="638" type="line"/>
      <point x="572" y="686" type="line"/>
      <point x="148" y="686" type="line"/>
      <point x="51" y="0" type="line"/>
    </contour>
    <contour>
      <point x="457" y="10" type="move" name="ogonek"/>
    </contour>
    <contour>
      <point x="260" y="0" type="move" name="bottom"/>
    </contour>
    <contour>
      <point x="357" y="686" type="move" name="top"/>
    </contour>
  </outline>
</glyph>
<glyph name="H" format="1">
  <advance width="693"/>
  <unicode hex="0048"/>
  <outline>
    <contour>
      <point x="530" y="0" type="line"/>
      <point x="627" y="686" type="line"/>
      <point x="573" y="686" type="line"/>
      <point x="529" y="374" type="line"/>
      <point x="158" y="374" type="line"/>
      <point x="202" y="686" type="line"/>
      <point x="148" y="686" type="line"/>
      <point x="51" y="0" type="line"/>
      <point x="105" y="0" type="line"/>
      <point x="151" y="326" type="line"/>
      <point x="522" y="326" type="line"/>
      <point x="476" y="0" type="line"/>
    </contour>
    <contour>
      <point x="339" y="343" type="move" name="center"/>
    </contour>
    <contour>
      <point x="388" y="686" type="move" name="top"/>
    </contour>
  </outline>
</glyph>
<glyph name="R" format="1">
  <advance width="670"/>
  <unicode hex="0052"/>
  <outline>
    <contour>
      <point x="560" y="20" type="line"/>
      <point x="542" y="29"/>
      <point x="522" y="30"/>
      <point x="522" y="87" type="curve" smooth="yes"/>
      <point x="522" y="112"/>
      <point x="532" y="168"/>
      <point x="532" y="204" type="curve" smooth="yes"/>
      <point x="532" y="335"/>
      <point x="446" y="349"/>
      <point x="446" y="349" type="curve"/>
      <point x="446" y="354" type="line"/>
      <point x="527" y="368"/>
      <point x="594" y="449"/>
      <point x="594" y="531" type="curve" smooth="yes"/>
      <point x="594" y="626"/>
      <point x="526" y="686"/>
      <point x="426" y="686" type="curve" smooth="yes"/>
      <point x="147" y="686" type="line"/>
      <point x="51" y="0" type="line"/>
      <point x="105" y="0" type="line"/>
      <point x="150" y="326" type="line"/>
      <point x="371" y="326" type="line" smooth="yes"/>
      <point x="399" y="326"/>
      <point x="476" y="316"/>
      <point x="476" y="186" type="curve" smooth="yes"/>
      <point x="476" y="158"/>
      <point x="469" y="115"/>
      <point x="469" y="85" type="curve" smooth="yes"/>
      <point x="469" y="10"/>
      <point x="505" y="-3"/>
      <point x="532" y="-3" type="curve" smooth="yes"/>
      <point x="546" y="-3"/>
      <point x="558" y="1"/>
      <point x="558" y="1" type="curve"/>
    </contour>
    <contour>
      <point x="157" y="374" type="line"/>
      <point x="194" y="638" type="line"/>
      <point x="422" y="638" type="line" smooth="yes"/>
      <point x="494" y="638"/>
      <point x="539" y="594"/>
      <point x="539" y="521" type="curve" smooth="yes"/>
      <point x="539" y="441"/>
      <point x="460" y="374"/>
      <point x="377" y="374" type="curve" smooth="yes"/>
    </contour>
    <contour>
      <point x="336" y="686" type="move" name="top"/>
    </contour>
    <contour>
      <point x="299" y="0" type="move" name="bottom"/>
    </contour>
  </outline>
</glyph>
<glyph name="asciicircum" format="1">
  <advance width="596"/>
  <unicode hex="005E"/>
  <outline>
    <contour>
      <point x="280" y="511" type="line"/>
      <point x="12" y="0" type="line"/>
      <point x="74" y="0" type="line"/>
      <point x="318" y="464" type="line"/>
      <point x="432" y="0" type="line"/>
      <point x="494" y="0" type="line"/>
      <point x="368" y="511" type="line"/>
    </contour>
  </outline>
</glyph>
<glyph name="r" format="1">
  <advance width="489"/>
  <unicode hex="0072"/>
  <outline>
    <contour>
      <point x="440" y="328" type="line"/>
      <point x="441" y="327"/>
      <point x="447" y="361"/>
      <point x="447" y="383" type="curve" smooth="yes"/>
      <point x="447" y="459"/>
      <point x="403" y="521"/>
      <point x="305" y="521" type="curve" smooth="yes"/>
      <point x="194" y="521"/>
      <point x="148" y="435"/>
      <point x="148" y="435" type="curve"/>
      <point x="148" y="511" type="line"/>
      <point x="114" y="511" type="line"/>
      <point x="42" y="0" type="line"/>
      <point x="93" y="0" type="line"/>
      <point x="138" y="324" type="line" smooth="yes"/>
      <point x="146" y="379"/>
      <point x="190" y="475"/>
      <point x="289" y="475" type="curve" smooth="yes"/>
      <point x="373" y="475"/>
      <point x="397" y="418"/>
      <point x="397" y="368" type="curve" smooth="yes"/>
      <point x="397" y="360"/>
      <point x="397" y="352"/>
      <point x="393" y="328" type="curve"/>
    </contour>
    <contour>
      <point x="148" y="511" type="move" name="top"/>
    </contour>
    <contour>
      <point x="68" y="0" type="move" name="bottom"/>
    </contour>
  </outline>
</glyph>
<glyph name="t" format="1">
  <advance width="344"/>
  <unicode hex="0074"/>
  <outline>
    <contour>
      <point x="230" y="52" type="line"/>
      <point x="213" y="45"/>
      <point x="181" y="36"/>
      <point x="166" y="36" type="curve" smooth="yes"/>
      <point x="141" y="36"/>
      <point x="116" y="42"/>
      <point x="116" y="84" type="curve" smooth="yes"/>
      <point x="116" y="90"/>
      <point x="117" y="96"/>
      <point x="118" y="103" type="curve" smooth="yes"/>
      <point x="169" y="465" type="line"/>
      <point x="288" y="465" type="line"/>
      <point x="295" y="511" type="line"/>
      <point x="176" y="511" type="line"/>
      <point x="199" y="674" type="line"/>
      <point x="166" y="674" type="line"/>
      <point x="125" y="511" type="line"/>
      <point x="69" y="511" type="line"/>
      <point x="62" y="465" type="line"/>
      <point x="118" y="465" type="line"/>
      <point x="67" y="101" type="line" smooth="yes"/>
      <point x="66" y="92"/>
      <point x="65" y="84"/>
      <point x="65" y="76" type="curve" smooth="yes"/>
      <point x="65" y="17"/>
      <point x="101" y="-10"/>
      <point x="153" y="-10" type="curve" smooth="yes"/>
      <point x="178" y="-10"/>
      <point x="205" y="-3"/>
      <point x="224" y="7" type="curve"/>
    </contour>
    <contour>
      <point x="115" y="256" type="move" name="center"/>
    </contour>
    <contour>
      <point x="136" y="0" type="move" name="bottom"/>
    </contour>
    <contour>
      <point x="404" y="686" type="move" name="topright"/>
    </contour>
  </outline>
</glyph>
<glyph name="y" format="1">
  <advance width="510"/>
  <unicode hex="0079"/>
  <outline>
    <contour>
      <point x="500" y="511" type="line"/>
      <point x="450" y="511" type="line"/>
      <point x="214" y="76" type="line"/>
      <point x="210" y="76" type="line"/>
      <point x="97" y="511" type="line"/>
      <point x="42" y="511" type="line"/>
      <point x="175" y="8" type="line"/>
      <point x="144" y="-48" type="line" smooth="yes"/>
      <point x="122" y="-88"/>
      <point x="94" y="-140"/>
      <point x="40" y="-140" type="curve" smooth="yes"/>
      <point x="22" y="-140"/>
      <point x="1" y="-132"/>
      <point x="-12" y="-126" type="curve"/>
      <point x="-19" y="-172" type="line"/>
      <point x="2" y="-182"/>
      <point x="21" y="-186"/>
      <point x="43" y="-186" type="curve" smooth="yes"/>
      <point x="134" y="-186"/>
      <point x="170" y="-94"/>
      <point x="228" y="13" type="curve" smooth="yes"/>
    </contour>
    <contour>
      <point x="274" y="511" type="move" name="top"/>
    </contour>
  </outline>
</glyph>
<glyph name="braceleft" format="1">
  <advance width="314"/>
  <unicode hex="007B"/>
  <outline>
    <contour>
      <point x="76" y="268" type="line"/>
      <point x="142" y="268"/>
      <point x="163" y="306"/>
      <point x="174" y="371" type="curve" smooth="yes"/>
      <point x="211" y="589" type="line" smooth="yes"/>
      <point x="219" y="635"/>
      <point x="271" y="648"/>
      <point x="299" y="648" type="curve"/>
      <point x="304" y="686" type="line"/>
      <point x="246" y="686"/>
      <point x="169" y="669"/>
      <point x="156" y="574" type="curve" smooth="yes"/>
      <point x="126" y="360" type="line" smooth="yes"/>
      <point x="120" y="318"/>
      <point x="77" y="303"/>
      <point x="41" y="303" type="curve"/>
      <point x="30" y="224" type="line"/>
      <point x="64" y="224"/>
      <point x="99" y="211"/>
      <point x="99" y="175" type="curve" smooth="yes"/>
      <point x="99" y="137"/>
      <point x="68" y="-14"/>
      <point x="68" y="-66" type="curve" smooth="yes"/>
      <point x="68" y="-136"/>
      <point x="131" y="-159"/>
      <point x="185" y="-159" type="curve"/>
      <point x="190" y="-121" type="line"/>
      <point x="163" y="-121"/>
      <point x="119" y="-110"/>
      <point x="119" y="-70" type="curve" smooth="yes"/>
      <point x="119" y="-27"/>
      <point x="145" y="131"/>
      <point x="145" y="190" type="curve" smooth="yes"/>
      <point x="145" y="234"/>
      <point x="129" y="259"/>
      <point x="75" y="259" type="curve"/>
    </contour>
  </outline>
</glyph>
<glyph name="acute" format="1">
  <advance width="333"/>
  <unicode hex="00B4"/>
  <outline>
    <contour>
      <point x="106" y="575" type="line"/>
      <point x="237" y="717" type="line"/>
      <point x="238" y="720" type="line"/>
      <point x="173" y="720" type="line"/>
      <point x="56" y="575" type="line"/>
    </contour>
    <contour>
      <point x="88" y="511" type="move" name="_top"/>
    </contour>
  </outline>
</glyph>
<glyph name="periodcentered" format="1">
  <advance width="235"/>
  <unicode hex="00B7"/>
  <outline>
    <contour>
      <point x="80" y="254" type="line"/>
      <point x="145" y="254" type="line"/>
      <point x="154" y="323" type="line"/>
      <point x="89" y="323" type="line"/>
    </contour>
  </outline>
</glyph>
<glyph name="ordmasculine" format="1">
  <advance width="392"/>
  <unicode hex="00BA"/>
  <outline>
    <contour>
      <point x="315" y="374"/>
      <point x="364" y="478"/>
      <point x="364" y="576" type="curve" smooth="yes"/>
      <point x="364" y="656"/>
      <point x="319" y="701"/>
      <point x="250" y="701" type="curve" smooth="yes"/>
      <point x="140" y="701"/>
      <point x="91" y="597"/>
      <point x="91" y="499" type="curve" smooth="yes"/>
      <point x="91" y="419"/>
      <point x="136" y="374"/>
      <point x="205" y="374" type="curve" smooth="yes"/>
    </contour>
    <contour>
      <point x="161" y="406"/>
      <point x="126" y="436"/>
      <point x="126" y="499" type="curve" smooth="yes"/>
      <point x="126" y="578"/>
      <point x="159" y="669"/>
      <point x="246" y="669" type="curve" smooth="yes"/>
      <point x="294" y="669"/>
      <point x="329" y="639"/>
      <point x="329" y="575" type="curve" smooth="yes"/>
      <point x="329" y="494"/>
      <point x="296" y="406"/>
      <point x="209" y="406" type="curve" smooth="yes"/>
    </contour>
  </outline>
</glyph>
<glyph name="onehalf" format="1">
  <advance width="727"/>
  <unicode hex="00BD"/>
  <outline>
    <contour>
      <point x="257" y="311" type="line"/>
      <point x="262" y="349" type="line"/>
      <point x="185" y="349" type="line"/>
      <point x="233" y="686" type="line"/>
      <point x="211" y="686" type="line"/>
      <point x="155" y="669"/>
      <point x="128" y="665"/>
      <point x="85" y="663" type="curve"/>
      <point x="81" y="634" type="line"/>
      <point x="183" y="634" type="line"/>
      <point x="143" y="349" type="line"/>
      <point x="41" y="349" type="line"/>
      <point x="36" y="311" type="line"/>
    </contour>
    <contour>
      <point x="644" y="686" type="line"/>
      <point x="600" y="686" type="line"/>
      <point x="83" y="0" type="line"/>
      <point x="130" y="0" type="line"/>
    </contour>
    <contour>
      <point x="398" y="0" type="line"/>
      <point x="652" y="0" type="line"/>
      <point x="658" y="38" type="line"/>
      <point x="450" y="38" type="line"/>
      <point x="451" y="48"/>
      <point x="459" y="62"/>
      <point x="482" y="76" type="curve" smooth="yes"/>
      <point x="605" y="151" type="line" smooth="yes"/>
      <point x="643" y="174"/>
      <point x="689" y="214"/>
      <point x="689" y="283" type="curve" smooth="yes"/>
      <point x="689" y="340"/>
      <point x="651" y="383"/>
      <point x="582" y="383" type="curve" smooth="yes"/>
      <point x="510" y="383"/>
      <point x="437" y="326"/>
      <point x="437" y="242" type="curve"/>
      <point x="478" y="242" type="line"/>
      <point x="478" y="299"/>
      <point x="521" y="345"/>
      <point x="577" y="345" type="curve" smooth="yes"/>
      <point x="623" y="345"/>
      <point x="647" y="318"/>
      <point x="647" y="279" type="curve" smooth="yes"/>
      <point x="647" y="231"/>
      <point x="618" y="203"/>
      <point x="590" y="186" type="curve" smooth="yes"/>
      <point x="473" y="115" type="line" smooth="yes"/>
      <point x="433" y="91"/>
      <point x="408" y="63"/>
      <point x="401" y="19" type="curve" smooth="yes"/>
    </contour>
  </outline>
</glyph>
<glyph name="Aring" format="1">
  <advance width="650"/>
  <unicode hex="00C5"/>
  <outline>
    <contour>
      <point x="522" y="0" type="line"/>
      <point x="581" y="0" type="line"/>
      <point x="394" y="686" type="line"/>
      <point x="344" y="686" type="line"/>
      <point x="-36" y="0" type="line"/>
      <point x="19" y="0" type="line"/>
      <point x="113" y="170" type="line"/>
      <point x="475" y="170" type="line"/>
    </contour>
    <contour>
      <point x="354" y="612" type="line"/>
      <point x="358" y="612" type="line"/>
      <point x="462" y="219" type="line"/>
      <point x="140" y="219" type="line"/>
    </contour>
    <contour>
      <point x="490" y="884"/>
      <point x="453" y="921"/>
      <point x="403" y="921" type="curve" smooth="yes"/>
      <point x="343" y="921"/>
      <point x="286" y="873"/>
      <point x="286" y="807" type="curve" smooth="yes"/>
      <point x="286" y="757"/>
      <point x="323" y="720"/>
      <point x="374" y="720" type="curve" smooth="yes"/>
      <point x="438" y="720"/>
      <point x="490" y="772"/>
      <point x="490" y="835" type="curve" smooth="yes"/>
    </contour>
    <contour>
      <point x="347" y="756"/>
      <point x="322" y="779"/>
      <point x="322" y="811" type="curve" smooth="yes"/>
      <point x="322" y="851"/>
      <point x="359" y="885"/>
      <point x="398" y="885" type="curve" smooth="yes"/>
      <point x="429" y="885"/>
      <point x="454" y="862"/>
      <point x="454" y="830" type="curve" smooth="yes"/>
      <point x="454" y="789"/>
      <point x="418" y="756"/>
      <point x="379" y="756" type="curve" smooth="yes"/>
    </contour>
  </outline>
</glyph>
<glyph name="Oslash" format="1">
  <advance width="690"/>
  <unicode hex="00D8"/>
  <outline>
    <contour>
      <point x="441" y="-10"/>
      <point x="573" y="54"/>
      <point x="608" y="330" type="curve" smooth="yes"/>
      <point x="616" y="394"/>
      <point x="619" y="428"/>
      <point x="619" y="458" type="curve" smooth="yes"/>
      <point x="619" y="536"/>
      <point x="602" y="590"/>
      <point x="574" y="626" type="curve"/>
      <point x="668" y="754" type="line"/>
      <point x="624" y="754" type="line"/>
      <point x="549" y="652" type="line"/>
      <point x="509" y="685"/>
      <point x="454" y="696"/>
      <point x="393" y="696" type="curve" smooth="yes"/>
      <point x="246" y="696"/>
      <point x="115" y="631"/>
      <point x="79" y="356" type="curve" smooth="yes"/>
      <point x="70" y="291"/>
      <point x="68" y="258"/>
      <point x="68" y="228" type="curve" smooth="yes"/>
      <point x="68" y="150"/>
      <point x="84" y="96"/>
      <point x="112" y="60" type="curve"/>
      <point x="20" y="-65" type="line"/>
      <point x="65" y="-65" type="line"/>
      <point x="138" y="34" type="line"/>
      <point x="178" y="1"/>
      <point x="233" y="-10"/>
      <point x="294" y="-10" type="curve" smooth="yes"/>
    </contour>
    <contour>
      <point x="249" y="38"/>
      <point x="203" y="48"/>
      <point x="171" y="79" type="curve"/>
      <point x="538" y="578" type="line"/>
      <point x="555" y="549"/>
      <point x="566" y="508"/>
      <point x="566" y="454" type="curve" smooth="yes"/>
      <point x="566" y="428"/>
      <point x="564" y="400"/>
      <point x="553" y="318" type="curve" smooth="yes"/>
      <point x="522" y="91"/>
      <point x="418" y="38"/>
      <point x="301" y="38" type="curve" smooth="yes"/>
    </contour>
    <contour>
      <point x="121" y="257"/>
      <point x="122" y="286"/>
      <point x="134" y="368" type="curve" smooth="yes"/>
      <point x="167" y="595"/>
      <point x="269" y="648"/>
      <point x="386" y="648" type="curve" smooth="yes"/>
      <point x="437" y="648"/>
      <point x="483" y="637"/>
      <point x="515" y="607" type="curve"/>
      <point x="148" y="108" type="line"/>
      <point x="131" y="137"/>
      <point x="121" y="177"/>
      <point x="121" y="232" type="curve" smooth="yes"/>
    </contour>
    <contour>
      <point x="406" y="686" type="move" name="top"/>
    </contour>
  </outline>
</glyph>
<glyph name="Yacute" format="1">
  <advance width="570"/>
  <unicode hex="00DD"/>
  <outline>
    <contour>
      <point x="595" y="686" type="line"/>
      <point x="540" y="686" type="line"/>
      <point x="275" y="321" type="line"/>
      <point x="270" y="321" type="line"/>
      <point x="112" y="686" type="line"/>
      <point x="49" y="686" type="line"/>
      <point x="236" y="266" type="line"/>
      <point x="198" y="0" type="line"/>
      <point x="252" y="0" type="line"/>
      <point x="290" y="266" type="line"/>
    </contour>
    <contour>
      <point x="361" y="750" type="line"/>
      <point x="492" y="892" type="line"/>
      <point x="493" y="895" type="line"/>
      <point x="428" y="895" type="line"/>
      <point x="311" y="750" type="line"/>
    </contour>
  </outline>
</glyph>
<glyph name="atilde" format="1">
  <advance width="607"/>
  <unicode hex="00E3"/>
  <outline>
    <contour>
      <point x="386" y="21"/>
      <point x="400" y="-10"/>
      <point x="444" y="-10" type="curve" smooth="yes"/>
      <point x="467" y="-10"/>
      <point x="488" y="-3"/>
      <point x="507" y="9" type="curve"/>
      <point x="513" y="52" type="line"/>
      <point x="496" y="43"/>
      <point x="475" y="36"/>
      <point x="460" y="36" type="curve" smooth="yes"/>
      <point x="447" y="36"/>
      <point x="437" y="43"/>
      <point x="437" y="61" type="curve" smooth="yes"/>
      <point x="437" y="73"/>
      <point x="499" y="511"/>
      <point x="499" y="511" type="curve" smooth="yes"/>
      <point x="466" y="511" type="line"/>
      <point x="442" y="440" type="line"/>
      <point x="438" y="440" type="line"/>
      <point x="412" y="490"/>
      <point x="359" y="521"/>
      <point x="287" y="521" type="curve" smooth="yes"/>
      <point x="112" y="521"/>
      <point x="42" y="344"/>
      <point x="42" y="190" type="curve" smooth="yes"/>
      <point x="42" y="50"/>
      <point x="115" y="-10"/>
      <point x="212" y="-10" type="curve" smooth="yes"/>
      <point x="284" y="-10"/>
      <point x="342" y="15"/>
      <point x="387" y="69" type="curve"/>
      <point x="386" y="64"/>
      <point x="386" y="60"/>
      <point x="386" y="55" type="curve" smooth="yes"/>
    </contour>
    <contour>
      <point x="149" y="36"/>
      <point x="93" y="77"/>
      <point x="93" y="193" type="curve" smooth="yes"/>
      <point x="93" y="316"/>
      <point x="142" y="475"/>
      <point x="285" y="475" type="curve" smooth="yes"/>
      <point x="361" y="475"/>
      <point x="418" y="428"/>
      <point x="418" y="321" type="curve" smooth="yes"/>
      <point x="418" y="187"/>
      <point x="368" y="36"/>
      <point x="224" y="36" type="curve" smooth="yes"/>
    </contour>
    <contour>
      <point x="481" y="720" type="line"/>
      <point x="471" y="697"/>
      <point x="453" y="688"/>
      <point x="420" y="688" type="curve" smooth="yes"/>
      <point x="366" y="688"/>
      <point x="321" y="720"/>
      <point x="257" y="720" type="curve" smooth="yes"/>
      <point x="179" y="720"/>
      <point x="149" y="670"/>
      <point x="145" y="638" type="curve"/>
      <point x="182" y="638" type="line"/>
      <point x="192" y="661"/>
      <point x="210" y="670"/>
      <point x="243" y="670" type="curve" smooth="yes"/>
      <point x="297" y="670"/>
      <point x="342" y="638"/>
      <point x="406" y="638" type="curve" smooth="yes"/>
      <point x="485" y="638"/>
      <point x="514" y="688"/>
      <point x="518" y="720" type="curve"/>
    </contour>
  </outline>
</glyph>
<glyph name="aring" format="1">
  <advance width="607"/>
  <unicode hex="00E5"/>
  <outline>
    <contour>
      <point x="386" y="21"/>
      <point x="400" y="-10"/>
      <point x="444" y="-10" type="curve" smooth="yes"/>
      <point x="467" y="-10"/>
      <point x="488" y="-3"/>
      <point x="507" y="9" type="curve"/>
      <point x="513" y="52" type="line"/>
      <point x="496" y="43"/>
      <point x="475" y="36"/>
      <point x="460" y="36" type="curve" smooth="yes"/>
      <point x="447" y="36"/>
      <point x="437" y="43"/>
      <point x="437" y="61" type="curve" smooth="yes"/>
      <point x="437" y="73"/>
      <point x="499" y="511"/>
      <point x="499" y="511" type="curve" smooth="yes"/>
      <point x="466" y="511" type="line"/>
      <point x="442" y="440" type="line"/>
      <point x="438" y="440" type="line"/>
      <point x="412" y="490"/>
      <point x="359" y="521"/>
      <point x="287" y="521" type="curve" smooth="yes"/>
      <point x="112" y="521"/>
      <point x="42" y="344"/>
      <point x="42" y="190" type="curve" smooth="yes"/>
      <point x="42" y="50"/>
      <point x="115" y="-10"/>
      <point x="212" y="-10" type="curve" smooth="yes"/>
      <point x="284" y="-10"/>
      <point x="342" y="15"/>
      <point x="387" y="69" type="curve"/>
      <point x="386" y="64"/>
      <point x="386" y="60"/>
      <point x="386" y="55" type="curve" smooth="yes"/>
    </contour>
    <contour>
      <point x="149" y="36"/>
      <point x="93" y="77"/>
      <point x="93" y="193" type="curve" smooth="yes"/>
      <point x="93" y="316"/>
      <point x="142" y="475"/>
      <point x="285" y="475" type="curve" smooth="yes"/>
      <point x="361" y="475"/>
      <point x="418" y="428"/>
      <point x="418" y="321" type="curve" smooth="yes"/>
      <point x="418" y="187"/>
      <point x="368" y="36"/>
      <point x="224" y="36" type="curve" smooth="yes"/>
    </contour>
    <contour>
      <point x="430" y="719"/>
      <point x="393" y="756"/>
      <point x="343" y="756" type="curve" smooth="yes"/>
      <point x="283" y="756"/>
      <point x="226" y="708"/>
      <point x="226" y="642" type="curve" smooth="yes"/>
      <point x="226" y="592"/>
      <point x="263" y="555"/>
      <point x="314" y="555" type="curve" smooth="yes"/>
      <point x="378" y="555"/>
      <point x="430" y="607"/>
      <point x="430" y="670" type="curve" smooth="yes"/>
    </contour>
    <contour>
      <point x="287" y="591"/>
      <point x="262" y="614"/>
      <point x="262" y="646" type="curve" smooth="yes"/>
      <point x="262" y="686"/>
      <point x="299" y="720"/>
      <point x="338" y="720" type="curve" smooth="yes"/>
      <point x="369" y="720"/>
      <point x="394" y="697"/>
      <point x="394" y="665" type="curve" smooth="yes"/>
      <point x="394" y="624"/>
      <point x="358" y="591"/>
      <point x="319" y="591" type="curve" smooth="yes"/>
    </contour>
  </outline>
</glyph>
<glyph name="eacute" format="1">
  <advance width="556"/>
  <unicode hex="00E9"/>
  <outline>
    <contour>
      <point x="400" y="189" type="line"/>
      <point x="385" y="84"/>
      <point x="316" y="36"/>
      <point x="230" y="36" type="curve" smooth="yes"/>
      <point x="150" y="36"/>
      <point x="92" y="87"/>
      <point x="92" y="192" type="curve" smooth="yes"/>
      <point x="92" y="208"/>
      <point x="93" y="224"/>
      <point x="97" y="250" type="curve"/>
      <point x="459" y="250" type="line"/>
      <point x="466" y="280"/>
      <point x="470" y="339"/>
      <point x="470" y="351" type="curve" smooth="yes"/>
      <point x="470" y="461"/>
      <point x="398" y="521"/>
      <point x="297" y="521" type="curve" smooth="yes"/>
      <point x="118" y="521"/>
      <point x="41" y="348"/>
      <point x="41" y="191" type="curve" smooth="yes"/>
      <point x="41" y="62"/>
      <point x="112" y="-10"/>
      <point x="223" y="-10" type="curve" smooth="yes"/>
      <point x="342" y="-10"/>
      <point x="432" y="61"/>
      <point x="450" y="189" type="curve"/>
    </contour>
    <contour>
      <point x="363" y="475"/>
      <point x="420" y="433"/>
      <point x="420" y="346" type="curve" smooth="yes"/>
      <point x="420" y="336"/>
      <point x="420" y="325"/>
      <point x="415" y="296" type="curve"/>
      <point x="104" y="296" type="line"/>
      <point x="129" y="416"/>
      <point x="204" y="475"/>
      <point x="290" y="475" type="curve" smooth="yes"/>
    </contour>
    <contour>
      <point x="329" y="575" type="line"/>
      <point x="460" y="717" type="line"/>
      <point x="461" y="720" type="line"/>
      <point x="396" y="720" type="line"/>
      <point x="279" y="575" type="line"/>
    </contour>
  </outline>
</glyph>
<glyph name="oacute" format="1">
  <advance width="576"/>
  <unicode hex="00F3"/>
  <outline>
    <contour>
      <point x="404" y="-10"/>
      <point x="484" y="159"/>
      <point x="484" y="319" type="curve" smooth="yes"/>
      <point x="484" y="449"/>
      <point x="411" y="521"/>
      <point x="300" y="521" type="curve" smooth="yes"/>
      <point x="121" y="521"/>
      <point x="41" y="352"/>
      <point x="41" y="192" type="curve" smooth="yes"/>
      <point x="41" y="62"/>
      <point x="114" y="-10"/>
      <point x="225" y="-10" type="curve" smooth="yes"/>
    </contour>
    <contour>
      <point x="151" y="36"/>
      <point x="92" y="87"/>
      <point x="92" y="193" type="curve" smooth="yes"/>
      <point x="92" y="324"/>
      <point x="148" y="475"/>
      <point x="293" y="475" type="curve" smooth="yes"/>
      <point x="373" y="475"/>
      <point x="433" y="424"/>
      <point x="433" y="317" type="curve" smooth="yes"/>
      <point x="433" y="183"/>
      <point x="376" y="36"/>
      <point x="232" y="36" type="curve" smooth="yes"/>
    </contour>
    <contour>
      <point x="353" y="575" type="line"/>
      <point x="484" y="717" type="line"/>
      <point x="485" y="720" type="line"/>
      <point x="420" y="720" type="line"/>
      <point x="303" y="575" type="line"/>
    </contour>
  </outline>
</glyph>
<glyph name="otilde" format="1">
  <advance width="576"/>
  <unicode hex="00F5"/>
  <outline>
    <contour>
      <point x="404" y="-10"/>
      <point x="484" y="159"/>
      <point x="484" y="319" type="curve" smooth="yes"/>
      <point x="484" y="449"/>
      <point x="411" y="521"/>
      <point x="300" y="521" type="curve" smooth="yes"/>
      <point x="121" y="521"/>
      <point x="41" y="352"/>
      <point x="41" y="192" type="curve" smooth="yes"/>
      <point x="41" y="62"/>
      <point x="114" y="-10"/>
      <point x="225" y="-10" type="curve" smooth="yes"/>
    </contour>
    <contour>
      <point x="151" y="36"/>
      <point x="92" y="87"/>
      <point x="92" y="193" type="curve" smooth="yes"/>
      <point x="92" y="324"/>
      <point x="148" y="475"/>
      <point x="293" y="475" type="curve" smooth="yes"/>
      <point x="373" y="475"/>
      <point x="433" y="424"/>
      <point x="433" y="317" type="curve" smooth="yes"/>
      <point x="433" y="183"/>
      <point x="376" y="36"/>
      <point x="232" y="36" type="curve" smooth="yes"/>
    </contour>
    <contour>
      <point x="480" y="720" type="line"/>
      <point x="470" y="697"/>
      <point x="452" y="688"/>
      <point x="419" y="688" type="curve" smooth="yes"/>
      <point x="365" y="688"/>
      <point x="320" y="720"/>
      <point x="256" y="720" type="curve" smooth="yes"/>
      <point x="178" y="720"/>
      <point x="148" y="670"/>
      <point x="144" y="638" type="curve"/>
      <point x="181" y="638" type="line"/>
      <point x="191" y="661"/>
      <point x="209" y="670"/>
      <point x="242" y="670" type="curve" smooth="yes"/>
      <point x="296" y="670"/>
      <point x="341" y="638"/>
      <point x="405" y="638" type="curve" smooth="yes"/>
      <point x="484" y="638"/>
      <point x="513" y="688"/>
      <point x="517" y="720" type="curve"/>
    </contour>
  </outline>
</glyph>
<glyph name="OE" format="1">
  <advance width="1031"/>
  <unicode hex="0152"/>
  <outline>
    <contour>
      <point x="957" y="0" type="line"/>
      <point x="957" y="48" type="line"/>
      <point x="588" y="48" type="line"/>
      <point x="627" y="326" type="line"/>
      <point x="946" y="326" type="line"/>
      <point x="953" y="374" type="line"/>
      <point x="634" y="374" type="line"/>
      <point x="671" y="638" type="line"/>
      <point x="1031" y="638" type="line"/>
      <point x="1048" y="686" type="line"/>
      <point x="624" y="686" type="line"/>
      <point x="611" y="600" type="line"/>
      <point x="573" y="674"/>
      <point x="499" y="696"/>
      <point x="413" y="696" type="curve" smooth="yes"/>
      <point x="266" y="696"/>
      <point x="135" y="631"/>
      <point x="99" y="356" type="curve" smooth="yes"/>
      <point x="90" y="291"/>
      <point x="88" y="258"/>
      <point x="88" y="228" type="curve" smooth="yes"/>
      <point x="88" y="38"/>
      <point x="187" y="-10"/>
      <point x="314" y="-10" type="curve" smooth="yes"/>
      <point x="401" y="-10"/>
      <point x="483" y="12"/>
      <point x="542" y="88" type="curve"/>
      <point x="527" y="0" type="line"/>
    </contour>
    <contour>
      <point x="220" y="38"/>
      <point x="141" y="77"/>
      <point x="141" y="232" type="curve" smooth="yes"/>
      <point x="141" y="257"/>
      <point x="142" y="286"/>
      <point x="154" y="368" type="curve" smooth="yes"/>
      <point x="187" y="595"/>
      <point x="289" y="648"/>
      <point x="406" y="648" type="curve" smooth="yes"/>
      <point x="506" y="648"/>
      <point x="586" y="609"/>
      <point x="586" y="454" type="curve" smooth="yes"/>
      <point x="586" y="428"/>
      <point x="584" y="400"/>
      <point x="573" y="318" type="curve" smooth="yes"/>
      <point x="542" y="91"/>
      <point x="438" y="38"/>
      <point x="321" y="38" type="curve" smooth="yes"/>
    </contour>
    <contour>
      <point x="577" y="686" type="move" name="top"/>
    </contour>
  </outline>
</glyph>
<glyph name="Ydieresis" format="1">
  <advance width="570"/>
  <unicode hex="0178"/>
  <outline>
    <contour>
      <point x="595" y="686" type="line"/>
      <point x="540" y="686" type="line"/>
      <point x="275" y="321" type="line"/>
      <point x="270" y="321" type="line"/>
      <point x="112" y="686" type="line"/>
      <point x="49" y="686" type="line"/>
      <point x="236" y="266" type="line"/>
      <point x="198" y="0" type="line"/>
      <point x="252" y="0" type="line"/>
      <point x="290" y="266" type="line"/>
    </contour>
    <contour>
      <point x="210" y="750" type="line"/>
      <point x="275" y="750" type="line"/>
      <point x="284" y="819" type="line"/>
      <point x="219" y="819" type="line"/>
    </contour>
    <contour>
      <point x="386" y="750" type="line"/>
      <point x="451" y="750" type="line"/>
      <point x="460" y="819" type="line"/>
      <point x="395" y="819" type="line"/>
    </contour>
  </outline>
</glyph>
<glyph name="breve" format="1">
  <advance width="520"/>
  <unicode hex="02D8"/>
  <outline>
    <contour>
      <point x="364" y="613"/>
      <point x="459" y="680"/>
      <point x="467" y="737" type="curve"/>
      <point x="411" y="737" type="line"/>
      <point x="387" y="687"/>
      <point x="329" y="662"/>
      <point x="264" y="662" type="curve" smooth="yes"/>
      <point x="199" y="662"/>
      <point x="147" y="687"/>
      <point x="138" y="737" type="curve"/>
      <point x="82" y="737" type="line"/>
      <point x="81" y="734"/>
      <point x="81" y="731"/>
      <point x="81" y="729" type="curve" smooth="yes"/>
      <point x="81" y="674"/>
      <point x="156" y="613"/>
      <point x="257" y="613" type="curve" smooth="yes"/>
    </contour>
    <contour>
      <point x="251" y="511" type="move" name="_top"/>
    </contour>
  </outline>
</glyph>
<glyph name="dotaccent" format="1">
  <advance width="280"/>
  <unicode hex="02D9"/>
  <outline>
    <contour>
      <point x="212" y="711"/>
      <point x="188" y="736"/>
      <point x="154" y="736" type="curve" smooth="yes"/>
      <point x="110" y="736"/>
      <point x="78" y="701"/>
      <point x="78" y="660" type="curve" smooth="yes"/>
      <point x="78" y="628"/>
      <point x="104" y="604"/>
      <point x="136" y="604" type="curve" smooth="yes"/>
      <point x="180" y="604"/>
      <point x="212" y="640"/>
      <point x="212" y="679" type="curve" smooth="yes"/>
    </contour>
    <contour>
      <point x="123" y="511" type="move" name="_top"/>
    </contour>
  </outline>
</glyph>
<glyph name="tilde" format="1">
  <advance width="364"/>
  <unicode hex="02DC"/>
  <outline>
    <contour>
      <point x="328" y="716" type="line"/>
      <point x="318" y="693"/>
      <point x="300" y="684"/>
      <point x="267" y="684" type="curve" smooth="yes"/>
      <point x="213" y="684"/>
      <point x="168" y="716"/>
      <point x="104" y="716" type="curve" smooth="yes"/>
      <point x="26" y="716"/>
      <point x="-4" y="666"/>
      <point x="-8" y="634" type="curve"/>
      <point x="29" y="634" type="line"/>
      <point x="39" y="657"/>
      <point x="57" y="666"/>
      <point x="90" y="666" type="curve" smooth="yes"/>
      <point x="144" y="666"/>
      <point x="189" y="634"/>
      <point x="253" y="634" type="curve" smooth="yes"/>
      <point x="332" y="634"/>
      <point x="361" y="684"/>
      <point x="365" y="716" type="curve"/>
    </contour>
    <contour>
      <point x="155" y="511" type="move" name="_top"/>
    </contour>
  </outline>
</glyph>
<glyph name="hungarumlaut" format="1">
  <advance width="442"/>
  <unicode hex="02DD"/>
  <outline>
    <contour>
      <point x="89" y="575" type="line"/>
      <point x="220" y="716" type="line"/>
      <point x="220" y="720" type="line"/>
      <point x="156" y="720" type="line"/>
      <point x="39" y="575" type="line"/>
    </contour>
    <contour>
      <point x="214" y="575" type="line"/>
      <point x="345" y="716" type="line"/>
      <point x="345" y="720" type="line"/>
      <point x="281" y="720" type="line"/>
      <point x="164" y="575" type="line"/>
    </contour>
    <contour>
      <point x="126" y="511" type="move" name="_top"/>
    </contour>
  </outline>
</glyph>
<glyph name="pi" format="1">
  <advance width="627"/>
  <unicode hex="03C0"/>
  <outline>
    <contour>
      <point x="572" y="465" type="line"/>
      <point x="585" y="510" type="line"/>
      <point x="190" y="510" type="line" smooth="yes"/>
      <point x="115" y="510"/>
      <point x="74" y="499"/>
      <point x="47" y="484" type="curve"/>
      <point x="53" y="452" type="line"/>
      <point x="76" y="460"/>
      <point x="108" y="465"/>
      <point x="177" y="465" type="curve"/>
      <point x="153" y="331"/>
      <point x="91" y="103"/>
      <point x="39" y="0" type="curve"/>
      <point x="88" y="0" type="line"/>
      <point x="137" y="90"/>
      <point x="203" y="336"/>
      <point x="227" y="465" type="curve"/>
      <point x="432" y="465" type="line"/>
      <point x="380" y="97"/>
      <point x="378" y="95"/>
      <point x="378" y="45" type="curve" smooth="yes"/>
      <point x="378" y="22"/>
      <point x="382" y="6"/>
      <point x="384" y="0" type="curve"/>
      <point x="432" y="0" type="line"/>
      <point x="429" y="12"/>
      <point x="428" y="28"/>
      <point x="428" y="49" type="curve" smooth="yes"/>
      <point x="428" y="99"/>
      <point x="434" y="129"/>
      <point x="482" y="465" type="curve"/>
    </contour>
  </outline>
</glyph>
<glyph name="endash" format="1">
  <advance width="637"/>
  <unicode hex="2013"/>
  <outline>
    <contour>
      <point x="559" y="239" type="line"/>
      <point x="568" y="297" type="line"/>
      <point x="68" y="297" type="line"/>
      <point x="60" y="239" type="line"/>
    </contour>
  </outline>
</glyph>
<glyph name="emdash" format="1">
  <advance width="1056"/>
  <unicode hex="2014"/>
  <outline>
    <contour>
      <point x="972" y="239" type="line"/>
      <point x="981" y="296" type="line"/>
      <point x="71" y="296" type="line"/>
      <point x="63" y="239" type="line"/>
    </contour>
  </outline>
</glyph>
<glyph name="quoteleft" format="1">
  <advance width="224"/>
  <unicode hex="2018"/>
  <outline>
    <contour>
      <point x="136" y="686" type="line"/>
      <point x="91" y="574" type="line"/>
      <point x="83" y="516" type="line"/>
      <point x="148" y="516" type="line"/>
      <point x="157" y="585" type="line"/>
      <point x="133" y="585" type="line" smooth="yes"/>
      <point x="133" y="585"/>
      <point x="169" y="686"/>
      <point x="170" y="686" type="curve"/>
    </contour>
  </outline>
</glyph>
<glyph name="quotedblleft" format="1">
  <advance width="366"/>
  <unicode hex="201C"/>
  <outline>
    <contour>
      <point x="235" y="686" type="line"/>
      <point x="190" y="574" type="line"/>
      <point x="182" y="516" type="line"/>
      <point x="247" y="516" type="line"/>
      <point x="256" y="585" type="line"/>
      <point x="232" y="585" type="line" smooth="yes"/>
      <point x="232" y="585"/>
      <point x="268" y="686"/>
      <point x="269" y="686" type="curve"/>
    </contour>
    <contour>
      <point x="136" y="686" type="line"/>
      <point x="91" y="574" type="line"/>
      <point x="83" y="516" type="line"/>
      <point x="148" y="516" type="line"/>
      <point x="157" y="585" type="line"/>
      <point x="133" y="585" type="line" smooth="yes"/>
      <point x="133" y="585"/>
      <point x="169" y="686"/>
      <point x="170" y="686" type="curve"/>
    </contour>
  </outline>
</glyph>
<glyph name="dagger" format="1">
  <advance width="511"/>
  <unicode hex="2020"/>
  <outline>
    <contour>
      <point x="482" y="446" type="line"/>
      <point x="491" y="510" type="line"/>
      <point x="285" y="494" type="line"/>
      <point x="328" y="686" type="line"/>
      <point x="263" y="686" type="line"/>
      <point x="252" y="494" type="line"/>
      <point x="50" y="510" type="line"/>
      <point x="41" y="446" type="line"/>
      <point x="248" y="462" type="line"/>
      <point x="142" y="-175" type="line"/>
      <point x="207" y="-175" type="line"/>
      <point x="281" y="462" type="line"/>
    </contour>
  </outline>
</glyph>
<glyph name="ellipsis" format="1">
  <advance width="734"/>
  <unicode hex="2026"/>
  <outline>
    <contour>
      <point x="29" y="0" type="line"/>
      <point x="94" y="0" type="line"/>
      <point x="103" y="69" type="line"/>
      <point x="38" y="69" type="line"/>
    </contour>
    <contour>
      <point x="242" y="0" type="line"/>
      <point x="307" y="0" type="line"/>
      <point x="316" y="69" type="line"/>
      <point x="251" y="69" type="line"/>
    </contour>
    <contour>
      <point x="454" y="0" type="line"/>
      <point x="519" y="0" type="line"/>
      <point x="528" y="69" type="line"/>
      <point x="463" y="69" type="line"/>
    </contour>
  </outline>
</glyph>
<glyph name="guilsinglleft" format="1">
  <advance width="276"/>
  <unicode hex="2039"/>
  <outline>
    <contour>
      <point x="194" y="163" type="line"/>
      <point x="122" y="337" type="line"/>
      <point x="243" y="511" type="line"/>
      <point x="202" y="511" type="line"/>
      <point x="55" y="337" type="line"/>
      <point x="153" y="163" type="line"/>
    </contour>
  </outline>
</glyph>
<glyph name="infinity" format="1">
  <advance width="766"/>
  <unicode hex="221E"/>
  <outline>
    <contour>
      <point x="716" y="382"/>
      <point x="669" y="432"/>
      <point x="592" y="432" type="curve" smooth="yes"/>
      <point x="514" y="432"/>
      <point x="456" y="377"/>
      <point x="399" y="322" type="curve" smooth="yes"/>
      <point x="389" y="313" type="line"/>
      <point x="346" y="374"/>
      <point x="297" y="432"/>
      <point x="222" y="432" type="curve" smooth="yes"/>
      <point x="129" y="432"/>
      <point x="45" y="365"/>
      <point x="45" y="256" type="curve" smooth="yes"/>
      <point x="45" y="182"/>
      <point x="100" y="126"/>
      <point x="172" y="126" type="curve" smooth="yes"/>
      <point x="253" y="126"/>
      <point x="316" y="185"/>
      <point x="377" y="245" type="curve"/>
      <point x="436" y="167"/>
      <point x="479" y="126"/>
      <point x="542" y="126" type="curve" smooth="yes"/>
      <point x="643" y="126"/>
      <point x="716" y="207"/>
      <point x="716" y="308" type="curve" smooth="yes"/>
    </contour>
    <contour>
      <point x="126" y="169"/>
      <point x="92" y="209"/>
      <point x="92" y="260" type="curve" smooth="yes"/>
      <point x="92" y="326"/>
      <point x="142" y="391"/>
      <point x="209" y="391" type="curve" smooth="yes"/>
      <point x="278" y="391"/>
      <point x="317" y="336"/>
      <point x="352" y="284" type="curve" smooth="yes"/>
      <point x="357" y="276" type="line"/>
      <point x="309" y="233"/>
      <point x="250" y="169"/>
      <point x="185" y="169" type="curve" smooth="yes"/>
    </contour>
    <contour>
      <point x="633" y="391"/>
      <point x="668" y="358"/>
      <point x="668" y="300" type="curve" smooth="yes"/>
      <point x="668" y="241"/>
      <point x="627" y="169"/>
      <point x="552" y="169" type="curve" smooth="yes"/>
      <point x="498" y="169"/>
      <point x="465" y="208"/>
      <point x="408" y="281" type="curve"/>
      <point x="449" y="316"/>
      <point x="513" y="391"/>
      <point x="581" y="391" type="curve" smooth="yes"/>
    </contour>
  </outline>
</glyph>
<glyph name="notequal" format="1">
  <advance width="615"/>
  <unicode hex="2260"/>
  <outline>
    <contour>
      <point x="543" y="511" type="line"/>
      <point x="475" y="511" type="line"/>
      <point x="372" y="386" type="line"/>
      <point x="67" y="386" type="line"/>
      <point x="59" y="328" type="line"/>
      <point x="325" y="328" type="line"/>
      <point x="201" y="178" type="line"/>
      <point x="38" y="178" type="line"/>
      <point x="29" y="120" type="line"/>
      <point x="153" y="120" type="line"/>
      <point x="55" y="0" type="line"/>
      <point x="126" y="0" type="line"/>
      <point x="223" y="120" type="line"/>
      <point x="529" y="120" type="line"/>
      <point x="538" y="178" type="line"/>
      <point x="271" y="178" type="line"/>
      <point x="394" y="328" type="line"/>
      <point x="559" y="328" type="line"/>
      <point x="567" y="386" type="line"/>
      <point x="441" y="386" type="line"/>
    </contour>
  </outline>
</glyph>
<glyph name="lessequal" format="1">
  <advance width="615"/>
  <unicode hex="2264"/>
  <outline>
    <contour>
      <point x="47" y="256" type="line"/>
      <point x="531" y="79" type="line"/>
      <point x="540" y="141" type="line"/>
      <point x="100" y="300" type="line"/>
      <point x="584" y="459" type="line"/>
      <point x="593" y="521" type="line"/>
      <point x="59" y="344" type="line"/>
    </contour>
    <contour>
      <point x="10" y="0" type="line"/>
      <point x="520" y="0" type="line"/>
      <point x="528" y="57" type="line"/>
      <point x="18" y="57" type="line"/>
    </contour>
  </outline>
</glyph>
<glyph name="greaterequal" format="1">
  <advance width="615"/>
  <unicode hex="2265"/>
  <outline>
    <contour>
      <point x="573" y="344" type="line"/>
      <point x="89" y="521" type="line"/>
      <point x="80" y="459" type="line"/>
      <point x="520" y="300" type="line"/>
      <point x="36" y="141" type="line"/>
      <point x="27" y="79" type="line"/>
      <point x="561" y="256" type="line"/>
    </contour>
    <contour>
      <point x="534" y="57" type="line"/>
      <point x="24" y="57" type="line"/>
      <point x="16" y="0" type="line"/>
      <point x="526" y="0" type="line"/>
    </contour>
  </outline>
</glyph>
